<svg xmlns="http://www.w3.org/2000/svg" width="25.104" height="32.373" viewBox="0 0 25.104 32.373"><path d="M47.453,35.722A6.356,6.356,0,1,0,41.1,42.079,6.363,6.363,0,0,0,47.453,35.722Zm-10.794,0A4.437,4.437,0,1,1,41.1,40.159,4.442,4.442,0,0,1,36.659,35.722Z" transform="translate(-28.544 -23.446)" fill="#fff"></path><path d="M36.314,51.249l.691-.717c.484-.5,11.862-12.39,11.862-19.1a12.552,12.552,0,1,0-25.1,0c0,6.713,11.376,18.6,11.86,19.1Zm0-30.453A10.646,10.646,0,0,1,46.948,31.43c0,4.6-7.124,13.248-10.634,17.038C32.8,44.68,25.681,36.037,25.681,31.43A10.645,10.645,0,0,1,36.314,20.8Z" transform="translate(-23.763 -18.876)" fill="#fff"></path></svg>